# xmcd
# 
# Track frame offsets:
#     150
#     19962
#     34722
#     56182
#     89617
#     105605
#     118899
#     137052
#     150975
#     166548
#     179426
# 
# Disc length: 2581
# 
# Revision: 0
# Processed by: cddbd v1.5.2PL0 Copyright (c) Steve Scherf et al.
# Submitted via: BonkEnc v1.0.5
# 
DISCID=8d0a130b
DTITLE=North Mississippi Allstars - Tate County Hill Country Blues
DYEAR=2003
DGENRE=Blues
TTITLE0=Coal Black Mattie
TTITLE1=Snake Drive
TTITLE2=Brooks Run to the Ocean
TTITLE3=Shimmy She Wobble
TTITLE4=I'm in Jail
TTITLE5=Used To Be
TTITLE6=Let Me In
TTITLE7=Crazy 'Bout You
TTITLE8=Bird Without a Feather
TTITLE9=World Boogie
TTITLE10=Glory
EXTD=
EXTT0=
EXTT1=
EXTT2=
EXTT3=
EXTT4=
EXTT5=
EXTT6=
EXTT7=
EXTT8=
EXTT9=
EXTT10=
PLAYORDER=
